<svg width="96" height="96" viewBox="0 0 96 96" fill="none" xmlns="http://www.w3.org/2000/svg">
  <path fill-rule="evenodd" clip-rule="evenodd" d="M36 51C36 44.3726 41.3726 39 48 39C54.6274 39 60 44.3726 60 51C60 57.6274 54.6274 63 48 63C41.3726 63 36 57.6274 36 51ZM48 46C45.2386 46 43 48.2386 43 51C43 53.7614 45.2386 56 48 56C50.7614 56 53 53.7614 53 51C53 48.2386 50.7614 46 48 46Z" fill="#161617"/>
  <path fill-rule="evenodd" clip-rule="evenodd" d="M51.5 19.5C51.5 17.567 49.933 16 48 16C46.067 16 44.5 17.567 44.5 19.5V26.1847C40.7806 26.5754 37.197 27.5724 33.8243 29.0492L30.7984 23.2041C29.9097 21.4875 27.7977 20.8164 26.0811 21.705C24.3645 22.5937 23.6933 24.7057 24.582 26.4223L27.6798 32.4062C24.7522 34.3431 22.0588 36.6421 19.6645 39.1938L14.574 34.9961C13.0827 33.7663 10.8768 33.9783 9.64697 35.4696C8.41717 36.961 8.62919 39.1669 10.1205 40.3967L15.2669 44.6405C14.2087 46.1719 13.2499 47.7554 12.4007 49.3738C11.8653 50.3943 11.8665 51.6129 12.404 52.6323C19.1126 65.3564 32.6211 76 47.9816 76C63.3611 76 76.8953 65.4031 83.5993 52.6262C84.1347 51.6057 84.1335 50.387 83.596 49.3676C82.7456 47.7546 81.7858 46.1749 80.7268 44.6462L85.8801 40.3967C87.3714 39.1669 87.5834 36.961 86.3536 35.4696C85.1238 33.9783 82.9179 33.7663 81.4266 34.9961L76.3258 39.2024C73.9323 36.6524 71.2408 34.3523 68.3155 32.4133L71.4175 26.4215C72.3062 24.7049 71.635 22.5929 69.9184 21.7042C68.2018 20.8155 66.0898 21.4867 65.2011 23.2033L62.174 29.0505C58.802 27.5704 55.2191 26.5712 51.5 26.1821V19.5ZM19.5057 50.9963C25.5651 61.2583 36.4659 69 47.9816 69C59.5311 69 70.4471 61.2846 76.4943 51.0037C70.4349 40.7417 59.5341 33 48.0184 33C36.0937 33 25.4037 40.9689 19.5057 50.9963Z" fill="#161617"/>
</svg> 