<svg width="96" height="96" viewBox="0 0 96 96" fill="none" xmlns="http://www.w3.org/2000/svg">
  <path fill-rule="evenodd" clip-rule="evenodd" d="M13.5471 36.5841C11.9365 37.6528 11.4972 39.825 12.566 41.4356C13.3576 42.6285 14.2375 43.7925 15.1977 44.9184L10.5332 49.6565C9.17709 51.034 9.19442 53.25 10.5719 54.6061C11.9494 55.9622 14.1654 55.9449 15.5215 54.5674L20.1887 49.8267C22.5213 51.7625 25.1154 53.4977 27.9103 54.9635L25.2485 61.0044C24.4691 62.7733 25.2712 64.8391 27.04 65.6185C28.8089 66.398 30.8748 65.5959 31.6542 63.827L34.3444 57.7216C37.5786 58.8167 40.9881 59.5539 44.5012 59.8518L44.5019 66.5008C44.5021 68.4338 46.0693 70.0006 48.0023 70.0004C49.9353 70.0002 51.5021 68.433 51.5019 66.5L51.5012 59.8518C55.0142 59.5538 58.4236 58.8166 61.6577 57.7215L64.3479 63.827C65.1274 65.5959 67.1932 66.398 68.9621 65.6185C70.731 64.8391 71.5331 62.7733 70.7536 61.0044L68.0918 54.9634C70.8867 53.4975 73.4807 51.7624 75.8134 49.8266L80.4806 54.5674C81.8367 55.9449 84.0527 55.9622 85.4302 54.6061C86.8077 53.25 86.825 51.034 85.4689 49.6565L80.8043 44.9184C81.7645 43.7925 82.6445 42.6285 83.4361 41.4356C84.5049 39.8249 84.0656 37.6528 82.4549 36.5841C80.8443 35.5153 78.6722 35.9545 77.6034 37.5652C71.2198 47.1852 59.439 53.0004 48.0008 53.0004C36.5628 53.0004 24.7822 47.1851 18.3987 37.5652C17.3299 35.9545 15.1578 35.5153 13.5471 36.5841Z" fill="#161617"/>
</svg> 