<svg width="96" height="96" viewBox="0 0 96 96" fill="none" xmlns="http://www.w3.org/2000/svg">
  <path fillRule="evenodd" clipRule="evenodd" d="M28 40V32C28 20.9543 36.9543 12 48 12C59.0457 12 68 20.9543 68 32V40H72C74.2091 40 76 41.7909 76 44V76C76 78.2091 74.2091 80 72 80H24C21.7909 80 20 78.2091 20 76V44C20 41.7909 21.7909 40 24 40H28ZM36 40H60V32C60 25.3726 54.6274 20 48 20C41.3726 20 36 25.3726 36 32V40ZM48 64C51.3137 64 54 61.3137 54 58C54 54.6863 51.3137 52 48 52C44.6863 52 42 54.6863 42 58C42 61.3137 44.6863 64 48 64Z" fill="#161617"/>
</svg> 