<svg class="NamedIcon_pintxo-icon__foreground__RbIjm" width="20" height="20" viewBox="0 0 96 96" fill="none" xmlns="http://www.w3.org/2000/svg"><path fill-rule="evenodd" clip-rule="evenodd" d="M10 67.5C10 73.299 14.701 78 20.5 78H75.5C81.299 78 86 73.299 86 67.5V28.5C86 26.8796 85.633 25.345 84.9775 23.9747L85.0102 23.941L84.9171 23.8506C83.2023 20.3839 79.6295 18 75.5 18H20.5C16.3702 18 12.7972 20.3843 11.0825 23.8514L10.9902 23.941L11.0227 23.9744C10.3671 25.3448 10 26.8795 10 28.5V67.5ZM17 30.125V67.5C17 69.433 18.567 71 20.5 71H75.5C77.433 71 79 69.433 79 67.5V30.1254L55.5301 54.2756C51.4067 58.5185 44.5937 58.5185 40.4703 54.2756L17 30.125ZM74.22 25H21.7804L45.4902 49.3971C46.8647 50.8114 49.1357 50.8114 50.5102 49.397L74.22 25Z" fill="#161617"></path></svg> 