<svg xmlns="http://www.w3.org/2000/svg" width="96" height="96" fill="none">
  <path d="M82.811 48c-6.3 18.76-15.41 36-34.42 36s-43.54-18.55-34.43-36c11.84-22.7 15.41-36 34.42-36s41.01 16.39 34.42 36h.01Z" fill="#FFF3DA"/>
  <path d="m61.53 56.781-27.08 15.31c-3.24 1.83-3.71 5.31-1.05 7.78 2.66 2.47 7.43 2.99 10.67 1.16l27.08-15.31c3.24-1.83 3.71-5.31 1.05-7.78-2.66-2.47-7.43-2.99-10.67-1.16Z" stroke="#575756" stroke-linecap="round" stroke-linejoin="round"/>
  <path d="M36.89 47.198c-3.24 1.83-8.01 1.31-10.67-1.16-.71-.66-1.19-1.39-1.46-2.14h-.05l7.07 33.27c.21.95.74 1.88 1.62 2.7 2.66 2.47 7.43 2.99 10.67 1.16l.3-.17-7.19-33.83-.3.17h.01Z" fill="#FCAE16"/>
  <path d="m42.69 72.928-5.5-25.9-.3.17c-3.24 1.83-8.01 1.31-10.67-1.16-.71-.66-1.19-1.39-1.46-2.14h-.05l6 28.25c3.38 2.19 8.31 2.55 11.98.77v.01Z" fill="#FFBE42"/>
  <path d="m41.43 67.018-4.25-19.99-.3.17c-3.24 1.83-8.01 1.31-10.67-1.16-.71-.66-1.19-1.39-1.46-2.14h-.05l4.18 19.69.08.11c2.84 3.24 8.18 4.59 12.46 3.31l.01.01Z" fill="#FAD895"/>
  <path d="m38.41 52.768-1.22-5.74-.3.17c-3.24 1.83-8.01 1.31-10.67-1.16-.71-.66-1.19-1.39-1.46-2.14h-.05l.74 3.49c3.31 3.32 8.24 5.4 12.96 5.38Z" fill="#F7EDDA"/>
  <path d="M33.407 79.88c-.2-.19-.38-.38-.54-.58.17.2.34.39.54.58ZM31.79 77.18ZM32.74 79.15c-.13-.17-.25-.33-.35-.51.11.17.22.34.35.51Z" fill="#FFBE42"/>
  <path d="M66.649 26.89c-.19-.97-.73-1.94-1.63-2.78-2.66-2.47-7.43-2.99-10.67-1.16l-27.08 15.31c-2.37 1.34-3.25 3.58-2.51 5.65.13.36.31.72.55 1.07 0 .01.01.03.02.04.1.15.22.3.35.45.02.03.04.05.06.08a6.55 6.55 0 0 0 1.5 1.28c.02 0 .03.02.04.03.36.23.74.43 1.13.6.02.01.05.02.07.03.39.17.8.31 1.22.43.03 0 .05.02.08.02.43.11.86.2 1.3.26h.07c.45.06.9.08 1.35.08h.04c.46 0 .92-.04 1.37-.11h.01c.92-.14 1.8-.4 2.61-.8.12-.06.24-.11.35-.18l.3-.17 7.19 33.83-.3.17 27.08-15.31c2-1.13 2.94-2.9 2.74-4.66h.02l-7.26-34.17v.01Z" fill="#DE9506"/>
  <path d="M66.539 61.61h.02l-.95-34.92c-.01-.95-.35-1.95-1.03-2.91-2.72-2.16-7.16-2.56-10.23-.82l-27.08 15.31c-2.37 1.34-3.25 3.58-2.51 5.65.13.36.31.72.55 1.07 0 .01.01.03.02.04.1.15.22.3.35.45.02.03.04.05.06.08a6.55 6.55 0 0 0 1.5 1.28c.02 0 .03.02.04.03.36.23.74.43 1.13.6.02.01.05.02.07.03.39.17.8.31 1.22.43.03 0 .05.02.08.02.43.11.86.2 1.3.26h.07c.45.06.9.08 1.35.08h.04c.46 0 .92-.04 1.37-.11h.01c.92-.14 1.8-.4 2.61-.8.12-.06.24-.11.35-.18l.3-.17 5.54 26.09 20.27-7.42c2.17-.75 3.42-2.32 3.54-4.09h.01Z" fill="#FCAE16"/>
  <path d="M59.199 59.73h.02l2.78-34.82c.08-.85-.1-1.77-.56-2.7-2.36-.63-5.04-.43-7.09.74l-27.08 15.31c-2.37 1.34-3.25 3.58-2.51 5.65.13.36.31.72.55 1.07 0 .01.01.03.02.04.1.15.22.3.35.45.02.03.04.05.06.08a6.55 6.55 0 0 0 1.5 1.28c.02 0 .03.02.04.03.36.23.74.43 1.13.6.02.01.05.02.07.03.39.17.8.31 1.22.43.03 0 .05.02.08.02.43.11.86.2 1.3.26h.07c.45.06.9.08 1.35.08h.04c.46 0 .92-.04 1.37-.11h.01c.92-.14 1.8-.4 2.61-.8.12-.06.24-.11.35-.18l.3-.17 4.25 19.99 13.81-3.6c2.24-.51 3.65-1.94 3.96-3.69v.01Z" fill="#FFBE42"/>
  <path d="M59.311 50.029c-.57-2.52-2.73-3.65-4.82-2.52-2.16 1.17-3.42 4.56-2.62 7.04.47 1.45 1.51 2.34 2.72 2.48l1.27 5.57c.28 1.23 1.33 1.78 2.35 1.23s1.62-2 1.34-3.23l-1.27-5.57c.97-1.41 1.42-3.3 1.03-5.01v.01Z" fill="#575756"/>
  <path d="M36.89 47.198c-3.24 1.83-8.01 1.31-10.67-1.16-.71-.66-1.19-1.39-1.46-2.14h-.05l7.07 33.27c.21.95.74 1.88 1.62 2.7 2.66 2.47 7.43 2.99 10.67 1.16l.3-.17-7.19-33.83-.3.17h.01Z" stroke="#575756" stroke-linecap="round" stroke-linejoin="round"/>
  <g stroke="#575756" stroke-linecap="round" stroke-linejoin="round">
    <path d="M33.407 79.88c-.2-.19-.38-.38-.54-.58.17.2.34.39.54.58ZM31.79 77.18a4.709 4.709 0 0 0 0 0ZM32.74 79.15c-.13-.17-.25-.33-.35-.51.11.17.22.34.35.51ZM66.649 26.89c-.19-.97-.73-1.94-1.63-2.78-2.66-2.47-7.43-2.99-10.67-1.16l-27.08 15.31c-2.37 1.34-3.25 3.58-2.51 5.65.13.36.31.72.55 1.07 0 .01.01.03.02.04.1.15.22.3.35.45.02.03.04.05.06.08a6.55 6.55 0 0 0 1.5 1.28c.02 0 .03.02.04.03.36.23.74.43 1.13.6.02.01.05.02.07.03.39.17.8.31 1.22.43.03 0 .05.02.08.02.43.11.86.2 1.3.26h.07c.45.06.9.08 1.35.08h.04c.46 0 .92-.04 1.37-.11h.01c.92-.14 1.8-.4 2.61-.8.12-.06.24-.11.35-.18l.3-.17 7.19 33.83-.3.17 27.08-15.31c2-1.13 2.94-2.9 2.74-4.66h.02l-7.26-34.17v.01Z"/>
  </g>
  <path d="m54.339 22.95-27.08 15.31c-3.24 1.83-3.71 5.31-1.05 7.78 2.66 2.47 7.43 2.99 10.67 1.16l27.08-15.31c3.24-1.83 3.71-5.31 1.05-7.78-2.66-2.47-7.43-2.99-10.67-1.16Z" fill="#FFBE42"/>
  <path d="M63.96 31.9c3.24-1.83 3.71-5.31 1.05-7.78-2.66-2.47-7.43-2.99-10.67-1.16L30.78 36.28c-.06 1.76.7 3.56 2.34 5.09 2.2 2.04 5.46 3.1 8.67 3.07L63.97 31.9h-.01Z" fill="#DE9506"/>
  <path d="m54.339 22.95-27.08 15.31c-3.24 1.83-3.71 5.31-1.05 7.78 2.66 2.47 7.43 2.99 10.67 1.16l27.08-15.31c3.24-1.83 3.71-5.31 1.05-7.78-2.66-2.47-7.43-2.99-10.67-1.16Z" stroke="#575756" stroke-linecap="round" stroke-linejoin="round"/>
  <path d="M35.661 43.012c-1.84.39-3.67-.75-4.12-2.59-2.31-9.44 1.64-20.26 9-24.64 3.59-2.13 7.53-2.48 11.1-.99 4.11 1.72 7.21 5.73 8.5 10.99.46 1.88-.69 3.77-2.57 4.23-1.86.45-3.77-.69-4.23-2.57-.76-3.08-2.36-5.34-4.4-6.2-1.49-.63-3.16-.44-4.81.55-4.7 2.8-7.35 10.56-5.79 16.96.46 1.88-.69 3.77-2.57 4.23-.04 0-.07.02-.11.02v.01Z" fill="#E0E1E2"/>
  <path d="M35.352 39.011c-1.96-7.99.06-16.85 4.68-22.89-7.02 4.57-10.74 15.09-8.49 24.29a3.497 3.497 0 0 0 4.12 2.59c.04 0 .07-.02.11-.02.8-.19 1.45-.66 1.91-1.25a3.974 3.974 0 0 1-2.34-2.71l.01-.01Z" fill="#fff"/>
  <path d="M55.96 27.181c-1.33-2.88-3.34-4.8-5.51-5.25-.15-.03-.3-.05-.45-.06 1.53 1.1 2.72 3.06 3.33 5.58.46 1.88 2.37 3.02 4.23 2.57.58-.14 1.09-.44 1.5-.81-1.3-.03-2.53-.76-3.11-2.02l.01-.01Z" fill="#B9BABC"/>
  <path d="M35.661 43.012c-1.84.39-3.67-.75-4.12-2.59-2.31-9.44 1.64-20.26 9-24.64 3.59-2.13 7.53-2.48 11.1-.99 4.11 1.72 7.21 5.73 8.5 10.99.46 1.88-.69 3.77-2.57 4.23-1.86.45-3.77-.69-4.23-2.57-.76-3.08-2.36-5.34-4.4-6.2-1.49-.63-3.16-.44-4.81.55-4.7 2.8-7.35 10.56-5.79 16.96.46 1.88-.69 3.77-2.57 4.23-.04 0-.07.02-.11.02v.01Z" stroke="#575756" stroke-linecap="round" stroke-linejoin="round"/>
  <path d="m34.861 69.489-.02-.05a6.848 6.848 0 0 0-1.97-2.99l.57-.24c.83-.35 1.59-.86 2.22-1.5l.24-.24.12.33c.35.94.91 1.79 1.63 2.49l.23.22h-.01c-1.07.35-2.04.96-2.83 1.77l-.2.21h.02ZM60.56 42.021a.95.95 0 1 0 0-1.9.95.95 0 0 0 0 1.9ZM49.939 71.67a1.22 1.22 0 1 0 0-2.44 1.22 1.22 0 0 0 0 2.44ZM39.918 19.5a.84.84 0 1 0 0-1.68.84.84 0 0 0 0 1.68ZM38.59 20.752a.54.54 0 1 0 0-1.08.54.54 0 0 0 0 1.08Z" fill="#fff"/>
</svg>