<svg xmlns="http://www.w3.org/2000/svg" width="96" height="96" viewBox="0 0 96 96" fill="none">
  <g id="Illustration">
    <path id="Vector" d="M83.9619 48.0908C82.7619 70.1208 68.4419 84.0908 49.4219 84.0908C30.4019 84.0908 21.6619 67.9408 13.5719 50.6808C5.43185 33.3408 30.9519 5.65081 48.3219 13.4408C67.5119 22.0508 85.0518 28.1808 83.9619 48.0908Z" fill="#FFF3DA"/>
    <g id="Group">
      <path id="Vector_2" fill-rule="evenodd" clip-rule="evenodd" d="M24.0005 71.3714L22.3605 70.2514C21.2005 69.4614 20.3905 68.2614 20.0905 66.8914L14.0305 39.1714C13.7705 37.9614 14.0605 36.7114 14.8405 35.7414C15.6205 34.7714 16.7805 34.2214 18.0205 34.2214C18.2305 34.2214 18.4505 34.2414 18.6705 34.2714C21.6105 34.7314 24.7905 34.9714 28.1005 34.9714C33.6505 34.9714 39.4305 34.3214 45.2805 33.0414C53.5805 31.2314 61.4605 28.2014 67.7705 24.4414C68.7505 23.8514 69.9605 23.7914 71.0105 24.2414L72.6605 24.9414L24.0005 71.3814" fill="white"/>
      <path id="Vector_3" d="M23.9994 72.1219C23.8494 72.1219 23.7094 72.0819 23.5794 71.9919L21.9394 70.8719C20.6194 69.9719 19.6994 68.6119 19.3594 67.0519L13.2994 39.3319C12.9894 37.8919 13.3294 36.4119 14.2494 35.2719C15.3294 33.9319 17.0094 33.2419 18.7794 33.5319C21.6794 33.9919 24.8194 34.2219 28.0894 34.2219C33.5894 34.2219 39.3194 33.5819 45.1094 32.3119C53.2494 30.5319 61.1593 27.5119 67.3793 23.8019C68.5493 23.1019 70.0194 23.0119 71.2994 23.5519L72.9493 24.2519C73.1793 24.3519 73.3494 24.5619 73.3994 24.8119C73.4494 25.0619 73.3594 25.3119 73.1794 25.4919L24.5194 71.9319C24.3794 72.0719 24.1894 72.1419 23.9994 72.1419V72.1219ZM18.0094 34.9719C16.9994 34.9719 16.0494 35.4219 15.4194 36.2119C14.7894 37.0019 14.5494 38.0219 14.7594 39.0119L20.8194 66.7319C21.0794 67.9219 21.7694 68.9519 22.7794 69.6319L23.9194 70.4119L71.3093 25.1819L70.7094 24.9319C69.8594 24.5719 68.9094 24.6319 68.1394 25.0919C61.7894 28.8819 53.7193 31.9719 45.4193 33.7819C39.5194 35.0719 33.6794 35.7319 28.0794 35.7319C24.7294 35.7319 21.5194 35.4919 18.5394 35.0219C18.3594 34.9919 18.1794 34.9819 18.0094 34.9819V34.9719Z" fill="#575756"/>
      <path id="Vector_4" fill-rule="evenodd" clip-rule="evenodd" d="M23.421 70.4528C23.561 71.0728 24.041 71.5628 24.671 71.6728C32.831 73.1728 42.921 72.9428 53.481 70.6328C64.041 68.3228 73.311 64.3228 80.101 59.5528C80.621 59.1928 80.861 58.5428 80.721 57.9228L73.771 26.1028C73.531 25.0128 72.281 24.5128 71.351 25.1228C64.671 29.5628 55.821 33.2828 45.801 35.4728C35.781 37.6628 26.191 37.9828 18.261 36.7228C17.161 36.5528 16.231 37.5328 16.461 38.6228L23.411 70.4428L23.421 70.4528Z" fill="#CA1919"/>
      <path id="Vector_5" fill-rule="evenodd" clip-rule="evenodd" d="M70.4788 49.44C71.1288 48.98 71.4288 48.18 71.2588 47.4L66.9688 27.75C60.9888 31.02 53.7788 33.73 45.8088 35.48C35.7888 37.67 26.1988 37.99 18.2688 36.73C17.1688 36.56 16.2388 37.54 16.4688 38.63L22.3388 65.49C27.1388 65.12 32.1188 64.4 37.1988 63.29C50.4088 60.4 61.9888 55.4 70.4788 49.44Z" fill="#E82929"/>
      <path id="Vector_6" fill-rule="evenodd" clip-rule="evenodd" d="M60.211 40.5908C60.861 40.1308 61.161 39.3308 60.991 38.5508L59.411 31.3008C55.231 32.9908 50.661 34.4208 45.801 35.4808C35.781 37.6708 26.191 37.9908 18.261 36.7308C17.161 36.5608 16.231 37.5408 16.461 38.6308L20.191 55.6908C22.411 55.3508 24.661 54.9308 26.921 54.4408C40.131 51.5508 51.711 46.5508 60.201 40.5908H60.211Z" fill="#ED4D4D"/>
      <path id="Vector_7" fill-rule="evenodd" clip-rule="evenodd" d="M38.841 38.2823C42.501 37.2623 45.981 36.0323 49.241 34.6523C48.111 34.9523 46.961 35.2223 45.801 35.4823C35.781 37.6723 26.191 37.9923 18.261 36.7323C17.161 36.5623 16.231 37.5423 16.461 38.6323L17.061 41.3623C23.741 41.3923 31.181 40.4123 38.831 38.2823H38.841Z" fill="#F5D2D2"/>
      <path id="Vector_8" d="M35.7378 73.3711C31.7878 73.3711 28.0178 73.0511 24.5378 72.4111C23.6178 72.2411 22.8978 71.5411 22.6978 70.6111L15.7478 38.7911C15.5778 38.0411 15.7978 37.2511 16.3278 36.6911C16.8578 36.1311 17.6178 35.8711 18.3978 35.9911C26.5878 37.2811 36.0078 36.8511 45.6578 34.7411C55.2978 32.6311 64.0478 29.0911 70.9478 24.5011C71.5878 24.0711 72.3978 23.9911 73.1178 24.2811C73.8278 24.5711 74.3578 25.1911 74.5178 25.9411L81.4678 57.7611C81.6678 58.6811 81.3078 59.6311 80.5478 60.1611C73.4478 65.1411 63.8978 69.1211 53.6578 71.3611C47.5878 72.6911 41.4878 73.3611 35.7478 73.3611L35.7378 73.3711ZM24.1578 70.3011C24.2278 70.6311 24.4878 70.8811 24.8078 70.9411C33.1478 72.4711 43.2778 72.1011 53.3278 69.9111C63.3778 67.7111 72.7278 63.8211 79.6778 58.9511C79.9478 58.7611 80.0678 58.4311 79.9978 58.0911L73.0478 26.2711C72.9878 26.0011 72.8078 25.7811 72.5478 25.6811C72.2878 25.5811 72.0078 25.6111 71.7678 25.7611C64.7078 30.4511 55.7878 34.0711 45.9678 36.2211C36.1378 38.3711 26.5278 38.8011 18.1578 37.4811C17.8878 37.4411 17.6078 37.5311 17.4178 37.7311C17.2278 37.9311 17.1478 38.2011 17.2078 38.4811L24.1578 70.3011Z" fill="#575756"/>
      <path id="Vector_9" fill-rule="evenodd" clip-rule="evenodd" d="M75.189 55.6005C75.339 56.2905 75.019 57.0105 74.389 57.3405C68.079 60.6805 60.559 63.4405 52.299 65.2405C44.039 67.0505 36.059 67.6705 28.929 67.2705C28.219 67.2305 27.629 66.7205 27.479 66.0205L25.119 55.2105C24.899 54.2005 25.689 53.2505 26.729 53.2905C33.639 53.5905 41.309 52.9505 49.239 51.2105C57.169 49.4805 64.409 46.8605 70.569 43.7005C71.489 43.2305 72.609 43.7605 72.829 44.7705L75.189 55.5805V55.6005Z" fill="#F0F0F1"/>
      <path id="Vector_10" fill-rule="evenodd" clip-rule="evenodd" d="M70.4807 49.4434C71.1307 48.9834 71.4307 48.1834 71.2607 47.4034L70.4707 43.7734C64.3407 46.9034 57.1307 49.5034 49.2507 51.2234C41.3207 52.9534 33.6507 53.6034 26.7407 53.3034C25.7007 53.2534 24.9107 54.2134 25.1307 55.2234L27.2607 64.9934C30.5207 64.5934 33.8307 64.0434 37.2007 63.3034C50.4107 60.4134 61.9907 55.4134 70.4807 49.4534V49.4434Z" fill="white"/>
      <path id="Vector_11" d="M33.069 68.1413C31.649 68.1413 30.259 68.1013 28.889 68.0313C27.849 67.9713 26.969 67.2213 26.749 66.1913L24.389 55.3813C24.229 54.6713 24.409 53.9413 24.889 53.3813C25.359 52.8213 26.039 52.5213 26.769 52.5613C33.799 52.8713 41.519 52.1613 49.089 50.5013C56.659 48.8413 63.979 46.2713 70.239 43.0613C70.889 42.7313 71.629 42.7213 72.289 43.0213C72.949 43.3313 73.419 43.9213 73.579 44.6313L75.939 55.4413C76.159 56.4613 75.679 57.5213 74.759 58.0013C68.209 61.4613 60.499 64.2213 52.479 65.9713C45.939 67.4013 39.319 68.1313 33.079 68.1313L33.069 68.1413ZM26.659 54.0513C26.419 54.0513 26.189 54.1613 26.029 54.3413C25.859 54.5413 25.799 54.8013 25.849 55.0613L28.209 65.8713C28.289 66.2413 28.599 66.5113 28.969 66.5313C36.239 66.9413 44.249 66.2413 52.139 64.5113C60.029 62.7813 67.599 60.0813 74.039 56.6813C74.359 56.5113 74.529 56.1313 74.449 55.7713L72.089 44.9613C72.029 44.7013 71.869 44.4913 71.629 44.3813C71.399 44.2713 71.129 44.2713 70.909 44.3913C64.539 47.6613 57.099 50.2813 49.399 51.9613C41.699 53.6413 33.859 54.3713 26.689 54.0513C26.679 54.0513 26.669 54.0513 26.649 54.0513H26.659Z" fill="#575756"/>
      <path id="Vector_12" d="M37.4275 62.4904C36.4175 62.4904 35.4175 62.4603 34.4375 62.4103C34.0275 62.3903 33.7075 62.0303 33.7275 61.6203C33.7475 61.2103 34.0975 60.8803 34.5175 60.9103C39.6675 61.1903 45.3375 60.7003 50.9174 59.4803C56.5075 58.2603 61.8675 56.3403 66.4174 53.9403C66.7874 53.7503 67.2375 53.8903 67.4275 54.2503C67.6175 54.6203 67.4775 55.0703 67.1175 55.2603C62.4475 57.7303 56.9575 59.6903 51.2375 60.9403C46.5775 61.9603 41.8674 62.4803 37.4174 62.4803L37.4275 62.4904Z" fill="#575756"/>
      <path id="Vector_13" d="M36.4682 58.9224C35.4582 58.9224 34.4682 58.8924 33.4882 58.8424C33.0782 58.8224 32.7582 58.4624 32.7782 58.0524C32.7982 57.6424 33.1482 57.3124 33.5682 57.3424C38.7082 57.6324 44.3782 57.1324 49.9682 55.9124C50.3682 55.8224 50.7682 56.0824 50.8582 56.4824C50.9482 56.8824 50.6882 57.2824 50.2882 57.3724C45.6282 58.3924 40.9082 58.9124 36.4682 58.9124V58.9224Z" fill="#575756"/>
      <path id="Vector_14" d="M69.1402 37.8123L69.1102 37.7823C68.5202 37.1223 67.7602 36.6323 66.9102 36.3723L67.2202 36.0423C67.6702 35.5623 68.0302 35.0023 68.2602 34.3823L68.3502 34.1523L68.5302 34.3323C69.0402 34.8523 69.6702 35.2623 70.3602 35.5123L70.5802 35.5923C69.9702 36.1523 69.5002 36.8423 69.2202 37.6123L69.1502 37.8123H69.1402Z" fill="white"/>
      <path id="Vector_15" d="M19.8406 44.3922C20.3653 44.3922 20.7906 43.9669 20.7906 43.4422C20.7906 42.9175 20.3653 42.4922 19.8406 42.4922C19.316 42.4922 18.8906 42.9175 18.8906 43.4422C18.8906 43.9669 19.316 44.3922 19.8406 44.3922Z" fill="white"/>
      <path id="Vector_16" d="M34.5197 48.5902C34.8455 48.5902 35.1097 48.326 35.1097 48.0002C35.1097 47.6743 34.8455 47.4102 34.5197 47.4102C34.1938 47.4102 33.9297 47.6743 33.9297 48.0002C33.9297 48.326 34.1938 48.5902 34.5197 48.5902Z" fill="white"/>
    </g>
  </g>
</svg>